<mxfile host="app.diagrams.net" agent="Mozilla/5.0 (Windows NT 10.0; Win64; x64) AppleWebKit/537.36 (KHTML, like Gecko) Chrome/130.0.0.0 Safari/537.36" version="24.8.3">
  <diagram name="Página-1" id="7ksObGD942LV1gkaenMh">
    <mxGraphModel dx="765" dy="1546" grid="1" gridSize="10" guides="1" tooltips="1" connect="1" arrows="1" fold="1" page="1" pageScale="1" pageWidth="827" pageHeight="1169" math="0" shadow="0">
      <root>
        <mxCell id="0" />
        <mxCell id="1" parent="0" />
        <mxCell id="tl6VPp0x0HTo_c4IIfu2-1" value="" style="verticalLabelPosition=bottom;verticalAlign=top;html=1;shape=mxgraph.basic.patternFillRect;fillStyle=diag;step=5;fillStrokeWidth=0.2;fillStrokeColor=#dddddd;rotation=-90;" vertex="1" parent="1">
          <mxGeometry x="-102.5" y="-197.5" width="365" height="10" as="geometry" />
        </mxCell>
        <mxCell id="tl6VPp0x0HTo_c4IIfu2-2" value="Actor" style="shape=umlActor;verticalLabelPosition=bottom;verticalAlign=top;html=1;outlineConnect=0;textOpacity=0;" vertex="1" parent="1">
          <mxGeometry x="67.5" y="-460" width="25" height="50" as="geometry" />
        </mxCell>
        <mxCell id="tl6VPp0x0HTo_c4IIfu2-3" value="&lt;b&gt;Usuario&lt;/b&gt;" style="text;html=1;align=center;verticalAlign=middle;whiteSpace=wrap;rounded=0;" vertex="1" parent="1">
          <mxGeometry x="50" y="-410" width="60" height="30" as="geometry" />
        </mxCell>
        <mxCell id="tl6VPp0x0HTo_c4IIfu2-4" value="" style="rounded=0;whiteSpace=wrap;html=1;" vertex="1" parent="1">
          <mxGeometry x="175" y="-410" width="130" height="30" as="geometry" />
        </mxCell>
        <mxCell id="tl6VPp0x0HTo_c4IIfu2-5" value="" style="endArrow=classic;html=1;rounded=0;" edge="1" parent="1">
          <mxGeometry width="50" height="50" relative="1" as="geometry">
            <mxPoint x="90" y="-320" as="sourcePoint" />
            <mxPoint x="230" y="-320" as="targetPoint" />
          </mxGeometry>
        </mxCell>
        <mxCell id="tl6VPp0x0HTo_c4IIfu2-6" value="" style="verticalLabelPosition=bottom;verticalAlign=top;html=1;shape=mxgraph.basic.patternFillRect;fillStyle=diag;step=5;fillStrokeWidth=0.2;fillStrokeColor=#dddddd;rotation=-90;" vertex="1" parent="1">
          <mxGeometry x="55" y="-200" width="370" height="10" as="geometry" />
        </mxCell>
        <mxCell id="tl6VPp0x0HTo_c4IIfu2-7" value="&lt;font style=&quot;font-size: 8px;&quot;&gt;Ingresa al formulario de inicio de sesion&lt;/font&gt;" style="text;html=1;align=center;verticalAlign=middle;whiteSpace=wrap;rounded=0;fontSize=9;" vertex="1" parent="1">
          <mxGeometry x="70" y="-340" width="190" height="10" as="geometry" />
        </mxCell>
        <mxCell id="tl6VPp0x0HTo_c4IIfu2-14" value="" style="endArrow=classic;html=1;rounded=0;" edge="1" parent="1">
          <mxGeometry width="50" height="50" relative="1" as="geometry">
            <mxPoint x="232" y="-280" as="sourcePoint" />
            <mxPoint x="90" y="-280" as="targetPoint" />
          </mxGeometry>
        </mxCell>
        <mxCell id="tl6VPp0x0HTo_c4IIfu2-15" value="&lt;font style=&quot;font-size: 8px;&quot;&gt;Muestra campos de usuario y clave&lt;/font&gt;" style="text;html=1;align=center;verticalAlign=middle;whiteSpace=wrap;rounded=0;fontSize=9;" vertex="1" parent="1">
          <mxGeometry x="40" y="-310" width="250" height="30" as="geometry" />
        </mxCell>
        <mxCell id="tl6VPp0x0HTo_c4IIfu2-16" value="" style="endArrow=classic;html=1;rounded=0;" edge="1" parent="1">
          <mxGeometry width="50" height="50" relative="1" as="geometry">
            <mxPoint x="87" y="-240" as="sourcePoint" />
            <mxPoint x="230" y="-240" as="targetPoint" />
          </mxGeometry>
        </mxCell>
        <mxCell id="tl6VPp0x0HTo_c4IIfu2-17" value="&lt;font style=&quot;font-size: 9px;&quot;&gt;Digita usuario y clave&lt;/font&gt;" style="text;html=1;align=center;verticalAlign=middle;whiteSpace=wrap;rounded=0;" vertex="1" parent="1">
          <mxGeometry x="85" y="-270" width="160" height="30" as="geometry" />
        </mxCell>
        <mxCell id="tl6VPp0x0HTo_c4IIfu2-18" value="&lt;b&gt;Formulario&amp;nbsp;&lt;/b&gt;" style="text;html=1;align=center;verticalAlign=middle;whiteSpace=wrap;rounded=0;" vertex="1" parent="1">
          <mxGeometry x="210" y="-410" width="60" height="30" as="geometry" />
        </mxCell>
        <mxCell id="tl6VPp0x0HTo_c4IIfu2-19" value="" style="verticalLabelPosition=bottom;verticalAlign=top;html=1;shape=mxgraph.basic.patternFillRect;fillStyle=diag;step=5;fillStrokeWidth=0.2;fillStrokeColor=#dddddd;rotation=-90;" vertex="1" parent="1">
          <mxGeometry x="255" y="-200" width="370" height="10" as="geometry" />
        </mxCell>
        <mxCell id="tl6VPp0x0HTo_c4IIfu2-20" value="" style="rounded=0;whiteSpace=wrap;html=1;" vertex="1" parent="1">
          <mxGeometry x="370" y="-410" width="130" height="30" as="geometry" />
        </mxCell>
        <mxCell id="tl6VPp0x0HTo_c4IIfu2-21" value="&lt;b&gt;Control&lt;/b&gt;" style="text;html=1;align=center;verticalAlign=middle;whiteSpace=wrap;rounded=0;" vertex="1" parent="1">
          <mxGeometry x="402.5" y="-410" width="75" height="30" as="geometry" />
        </mxCell>
        <mxCell id="tl6VPp0x0HTo_c4IIfu2-22" value="" style="endArrow=classic;html=1;rounded=0;exitX=0.5;exitY=1;exitDx=0;exitDy=0;exitPerimeter=0;entryX=0.5;entryY=0;entryDx=0;entryDy=0;entryPerimeter=0;" edge="1" parent="1" source="tl6VPp0x0HTo_c4IIfu2-6" target="tl6VPp0x0HTo_c4IIfu2-19">
          <mxGeometry width="50" height="50" relative="1" as="geometry">
            <mxPoint x="260" y="-270" as="sourcePoint" />
            <mxPoint x="310" y="-320" as="targetPoint" />
          </mxGeometry>
        </mxCell>
        <mxCell id="tl6VPp0x0HTo_c4IIfu2-23" value="&lt;font style=&quot;font-size: 9px;&quot;&gt;Enviar datos para validación(usuario clave)&lt;/font&gt;" style="text;html=1;align=center;verticalAlign=middle;whiteSpace=wrap;rounded=0;" vertex="1" parent="1">
          <mxGeometry x="230" y="-230" width="220" height="30" as="geometry" />
        </mxCell>
        <mxCell id="tl6VPp0x0HTo_c4IIfu2-26" value="" style="verticalLabelPosition=bottom;verticalAlign=top;html=1;shape=mxgraph.basic.patternFillRect;fillStyle=diag;step=5;fillStrokeWidth=0.2;fillStrokeColor=#dddddd;rotation=-90;" vertex="1" parent="1">
          <mxGeometry x="487.5" y="-197.5" width="375" height="10" as="geometry" />
        </mxCell>
        <mxCell id="tl6VPp0x0HTo_c4IIfu2-27" value="" style="rounded=0;whiteSpace=wrap;html=1;" vertex="1" parent="1">
          <mxGeometry x="610" y="-410" width="130" height="30" as="geometry" />
        </mxCell>
        <mxCell id="tl6VPp0x0HTo_c4IIfu2-29" value="&lt;b&gt;Base de datos&lt;/b&gt;" style="text;html=1;align=center;verticalAlign=middle;whiteSpace=wrap;rounded=0;" vertex="1" parent="1">
          <mxGeometry x="627.5" y="-410" width="95" height="30" as="geometry" />
        </mxCell>
        <mxCell id="tl6VPp0x0HTo_c4IIfu2-30" value="" style="endArrow=classic;html=1;rounded=0;exitX=0.382;exitY=1.3;exitDx=0;exitDy=0;exitPerimeter=0;" edge="1" parent="1" source="tl6VPp0x0HTo_c4IIfu2-19">
          <mxGeometry width="50" height="50" relative="1" as="geometry">
            <mxPoint x="480" y="-220" as="sourcePoint" />
            <mxPoint x="670" y="-151" as="targetPoint" />
          </mxGeometry>
        </mxCell>
        <mxCell id="tl6VPp0x0HTo_c4IIfu2-31" value="&lt;font style=&quot;font-size: 9px;&quot;&gt;Consultar credenciales&lt;/font&gt;" style="text;html=1;align=center;verticalAlign=middle;whiteSpace=wrap;rounded=0;" vertex="1" parent="1">
          <mxGeometry x="477.5" y="-185" width="140" height="30" as="geometry" />
        </mxCell>
        <mxCell id="tl6VPp0x0HTo_c4IIfu2-32" value="" style="endArrow=classic;html=1;rounded=0;" edge="1" parent="1">
          <mxGeometry width="50" height="50" relative="1" as="geometry">
            <mxPoint x="669" y="-120" as="sourcePoint" />
            <mxPoint x="450" y="-120" as="targetPoint" />
          </mxGeometry>
        </mxCell>
        <mxCell id="tl6VPp0x0HTo_c4IIfu2-33" value="&lt;font style=&quot;font-size: 9px;&quot;&gt;Credenciales validas&lt;/font&gt;" style="text;html=1;align=center;verticalAlign=middle;whiteSpace=wrap;rounded=0;" vertex="1" parent="1">
          <mxGeometry x="485" y="-150" width="140" height="30" as="geometry" />
        </mxCell>
        <mxCell id="tl6VPp0x0HTo_c4IIfu2-34" value="" style="endArrow=classic;html=1;rounded=0;entryX=0.25;entryY=1;entryDx=0;entryDy=0;entryPerimeter=0;exitX=0.25;exitY=0;exitDx=0;exitDy=0;exitPerimeter=0;" edge="1" parent="1" source="tl6VPp0x0HTo_c4IIfu2-19" target="tl6VPp0x0HTo_c4IIfu2-6">
          <mxGeometry width="50" height="50" relative="1" as="geometry">
            <mxPoint x="360" y="-60" as="sourcePoint" />
            <mxPoint x="410" y="-110" as="targetPoint" />
          </mxGeometry>
        </mxCell>
        <mxCell id="tl6VPp0x0HTo_c4IIfu2-35" value="&lt;font style=&quot;font-size: 9px;&quot;&gt;Acceso permitido&lt;/font&gt;" style="text;html=1;align=center;verticalAlign=middle;whiteSpace=wrap;rounded=0;" vertex="1" parent="1">
          <mxGeometry x="230" y="-130" width="180" height="30" as="geometry" />
        </mxCell>
        <mxCell id="tl6VPp0x0HTo_c4IIfu2-36" value="" style="endArrow=classic;html=1;rounded=0;exitX=0.192;exitY=-0.194;exitDx=0;exitDy=0;exitPerimeter=0;" edge="1" parent="1" source="tl6VPp0x0HTo_c4IIfu2-6">
          <mxGeometry width="50" height="50" relative="1" as="geometry">
            <mxPoint x="170" y="-120" as="sourcePoint" />
            <mxPoint x="90" y="-81" as="targetPoint" />
          </mxGeometry>
        </mxCell>
        <mxCell id="tl6VPp0x0HTo_c4IIfu2-38" value="&lt;font style=&quot;font-size: 9px;&quot;&gt;Acceso concedido&lt;/font&gt;" style="text;html=1;align=center;verticalAlign=middle;whiteSpace=wrap;rounded=0;" vertex="1" parent="1">
          <mxGeometry x="90" y="-110" width="150" height="30" as="geometry" />
        </mxCell>
        <mxCell id="tl6VPp0x0HTo_c4IIfu2-39" value="" style="endArrow=classic;html=1;rounded=0;entryX=0.143;entryY=1.079;entryDx=0;entryDy=0;entryPerimeter=0;exitX=0.14;exitY=-0.012;exitDx=0;exitDy=0;exitPerimeter=0;" edge="1" parent="1" source="tl6VPp0x0HTo_c4IIfu2-19" target="tl6VPp0x0HTo_c4IIfu2-6">
          <mxGeometry width="50" height="50" relative="1" as="geometry">
            <mxPoint x="433" y="-42" as="sourcePoint" />
            <mxPoint x="380" y="-70" as="targetPoint" />
          </mxGeometry>
        </mxCell>
        <mxCell id="tl6VPp0x0HTo_c4IIfu2-41" value="&lt;font style=&quot;font-size: 9px;&quot;&gt;Acceso denegado&lt;/font&gt;" style="text;html=1;align=center;verticalAlign=middle;whiteSpace=wrap;rounded=0;" vertex="1" parent="1">
          <mxGeometry x="250" y="-90" width="145" height="30" as="geometry" />
        </mxCell>
        <mxCell id="tl6VPp0x0HTo_c4IIfu2-42" value="" style="endArrow=classic;html=1;rounded=0;entryX=0.035;entryY=1.018;entryDx=0;entryDy=0;entryPerimeter=0;" edge="1" parent="1" target="tl6VPp0x0HTo_c4IIfu2-1">
          <mxGeometry width="50" height="50" relative="1" as="geometry">
            <mxPoint x="230" y="-22" as="sourcePoint" />
            <mxPoint x="180" y="-70" as="targetPoint" />
          </mxGeometry>
        </mxCell>
        <mxCell id="tl6VPp0x0HTo_c4IIfu2-43" value="&lt;font style=&quot;font-size: 9px;&quot;&gt;Datos incorrectos, vuelva a intentar&lt;/font&gt;" style="text;html=1;align=center;verticalAlign=middle;whiteSpace=wrap;rounded=0;" vertex="1" parent="1">
          <mxGeometry x="70" y="-50" width="180" height="30" as="geometry" />
        </mxCell>
      </root>
    </mxGraphModel>
  </diagram>
</mxfile>
